<?xml version="1.0" encoding="utf-8"?>
<!-- Generator: Adobe Illustrator 25.0.1, SVG Export Plug-In . SVG Version: 6.00 Build 0)  -->
<svg version="1.1" id="Layer_1" xmlns="http://www.w3.org/2000/svg" xmlns:xlink="http://www.w3.org/1999/xlink" x="0px" y="0px"
	 viewBox="0 0 612 792" style="enable-background:new 0 0 612 792;" xml:space="preserve">
<style type="text/css">
	.st0{fill:#F0F2F2;}
</style>
<g>
	<path class="st0" d="M314.2,435.57c-1.91,3.22-3.88,6.47-5.8,9.75c-1.68,2.86-4.07,4.01-7.15,2.57c-2.96-1.39-3.98-3.89-3.02-7.07
		c0.58-1.91,1.21-3.81,1.88-5.69c2.5-7.14,2.4-6.99-3.84-11.64c-28.11-20.96-52.45-45.33-67.71-77.46
		c-9.48-19.96-13.14-40.72-6.85-62.57c2.53-8.81,7.87-14.98,16.01-18.68c16.75-7.61,31.94-4.61,45.07,7.9
		c7.18,6.85,13.64,14.46,20.68,22c1.05-2.29,2.33-5.09,3.63-7.88c7.91-16.97,16.79-33.32,30.27-46.68
		c18.46-18.29,38.05-15.39,50.37,7.61c7.07,13.2,6.71,27.19,3.64,41.34c-3.72,17.1-10.83,32.92-19.4,47.97
		c-16.14,28.36-32.93,56.34-49.45,84.48c-1.17,2-2.37,3.98-3.67,6.16c5.48,3.97,10.95,7.74,16.16,11.85c1.27,1,1.67,3.12,2.46,4.72
		c-1.92,0.19-4.19,1.14-5.7,0.44C325.91,442,320.27,438.77,314.2,435.57z M305.86,417.62c12.91-19.98,25.42-39.59,38.2-59.03
		c11.91-18.12,23.58-36.34,30.67-57.02c4.16-12.12,8.74-24.23,7.28-37.4c-1.11-10.01-6.38-17.56-15.47-21.75
		c-8.74-4.03-16.29-0.35-22.83,5.51c-3.95,3.54-8.19,7.13-10.95,11.54c-8.56,13.65-16.55,27.66-24.53,41.66
		c-0.76,1.33-0.19,3.71,0.32,5.43c3.01,10.17,6.3,20.25,9.25,30.43c0.78,2.68,1.18,5.95-2.77,6.85c-3.54,0.81-5-1.52-6.1-4.46
		c-2.36-6.32-4.89-12.57-7.35-18.84c-0.43-0.02-0.85-0.04-1.28-0.06c-1.17,4.9-2.18,9.84-3.59,14.66c-0.52,1.76-1.99,3.24-3.03,4.85
		c-0.52-1.89-1.7-3.87-1.45-5.66c0.73-5.26,1.3-10.73,3.26-15.58c2.56-6.33,1.07-11.35-2.06-16.83
		c-6.72-11.77-14.75-22.02-28.72-25.24c-19.33-4.46-35.93,6.86-34.89,26.86c0.54,10.41,2.23,20.57,6.77,30
		C252.9,367.43,278.05,394.01,305.86,417.62z"/>
	<path class="st0" d="M416.52,518.43c-1.52,0.27-2.8,0.73-4.06,0.7c-11.12-0.32-16.38,5.37-17.12,16.14
		c-0.26,3.75-1.21,7.45-0.81,11.92c4-4.24,8-8.48,12-12.71c0.54,0.16,1.08,0.32,1.63,0.48c0,2.3,0.77,5-0.16,6.83
		c-1.89,3.73-4.38,7.3-7.23,10.36c-1.57,1.68-5.55,3.66-6.45,2.96c-2.93-2.3-5.33-5.55-7.16-8.87c-0.97-1.76-0.37-4.4-1.59-7.14
		c-2.02,2.43-4.45,4.63-6,7.33c-6.67,11.69-17.07,12.58-25.7,2c-4.7,0.99-7.08-0.66-7.73-6.06c-0.6-4.93-0.65-9.92-1.03-16.15
		c-2.16,3.02-4.06,5.03-5.2,7.41c-2.83,5.93-5.18,12.08-8.05,17.99c-0.49,1.02-2.88,2.08-3.89,1.71c-3.41-1.23-5.14-3.94-4.83-7.76
		c0.38-4.62,0.66-9.24,0.48-14.05c-4.78,5.49-7.35,12.05-9.58,18.8c-0.62,1.88,0.84,5.81-2.92,4.84c-2.38-0.61-5.44-3.24-5.95-5.48
		c-1.16-5.11-1.05-10.54-1.24-15.84c-0.17-4.6-0.03-9.21-0.03-14.02c7.84,0.73,7.21,6.94,8.13,13.33c2.29-4.88,3.64-8.77,5.88-12.07
		c0.93-1.37,4.06-2.46,5.63-1.95c4.89,1.6,8.03,5.22,8.46,11.45c2.78-3.98,4.98-7.34,7.39-10.52c4.24-5.6,8.47-5.25,12.13,0.98
		c0.89,1.51,1.46,3.2,2.21,4.9c2.88-2.51,5.55-5.18,8.56-7.39c4.91-3.59,9.65-3.69,13.85-0.75c5.67,3.98,6.1,8.41,0.72,12.6
		c-4.15,3.23-8.7,6-13.27,8.63c-1.81,1.05-4.15,1.18-6.34,1.75c0.77,7.93,4.45,10.12,11.43,5.75c6.68-4.18,13.13-8.82,19.17-13.87
		c1.82-1.52,1.93-5.09,2.57-6.98c-3-2.73-5.52-5.02-8.03-7.3c0.07-0.51,0.14-1.02,0.2-1.53c9.14,1.51,11.99-3.54,13.39-10.89
		c0.82-4.3,2.91-8.37,4.41-12.5c6.2,1.96,7.42,4.53,5.17,9.6c-1.21,2.73-2.3,5.51-3.4,8.28c-0.17,0.42-0.1,0.94-0.16,1.5
		c8.29,1.06,17.4-6.1,25.71,2.57c-2.5,1.25-4.23,2.11-5.58,2.78c1.11,2.31,2.23,4.63,3.61,7.53c4.42-5.9,7.69-12.89,15.97-12.02
		c2.36,0.25,4.48,2.7,7.79,4.84c-1.77,1.09-2.44,1.81-3.2,1.91c-12.31,1.61-15.35,11.88-19.22,21.03c-1.48,3.51-1.6,7.69-1.85,11.59
		c-0.23,3.55-1.77,3.58-4.15,2.11c-3.08-1.9-4.92-4.14-4.7-8.4C416.85,537.52,416.52,528.21,416.52,518.43z M372.18,523.92
		c-0.42-0.58-0.84-1.15-1.26-1.73c-3.39,2.57-6.77,5.13-10.16,7.7c0.38,0.5,0.75,0.99,1.13,1.49
		C365.32,528.89,368.75,526.4,372.18,523.92z"/>
	<path class="st0" d="M260.03,525.42c-2.89-2.51-5.36-4.66-7.78-6.76c0.82-1.09,1.03-1.58,1.2-1.56c7.19,0.54,10.74-2.62,11.83-9.92
		c0.72-4.77,3.22-9.27,4.92-13.89c6.26,2.45,7.3,4.83,4.95,10c-0.69,1.51-1.35,3.03-1.96,4.58c-0.6,1.53-1.13,3.1-1.97,5.45
		c3.43-0.55,6.41-1.13,9.41-1.49c3.13-0.37,6.29-0.72,9.44-0.71c4.38,0.02,6.91,2.37,6.76,6.85c-0.15,4.81-0.84,9.61-0.93,14.43
		c-0.12,5.96-0.04,11.93,0.29,17.88c0.15,2.77,0.26,5.45-3.25,5.13c-2.68-0.24-6.37-0.25-6.16-4.8c0.34-7.29,0.55-14.59,0.86-21.89
		c0.14-3.46,0.36-6.91,0.56-10.74c-5.96,1.14-11.32,2.01-16.6,3.26c-1.41,0.34-3.38,1.62-3.68,2.82c-1.88,7.5-3.37,15.09-4.98,22.66
		c0.4,0.22,0.8,0.44,1.2,0.66c2.18-2.35,4.42-4.64,6.53-7.05c2.03-2.32,3.94-4.76,6.1-7.39c4.74,7.39-1.29,10.96-3.17,15.61
		c-0.29,0.72-0.94,1.4-1.59,1.85c-2.57,1.76-6.31,5.43-7.59,4.73c-3.12-1.72-6.61-5.22-7.21-8.5c-0.85-4.66,0.67-9.78,1.36-14.67
		C258.91,529.51,259.64,527.11,260.03,525.42z"/>
	<path class="st0" d="M239.29,524.67c-5.83,7.81-10.56,16.2-12.08,26.08c-0.36,2.33-0.58,4.97-3.32,4.26
		c-2.35-0.61-5.99-2.81-6.08-4.46c-0.55-10.56-0.28-21.15-0.28-31.73c6.25-0.04,6.97,0.73,8.73,9.74c1.06-1.91,1.76-3.24,2.52-4.54
		c1.96-3.36,3.9-6.8,8.72-6.01c5.01,0.83,9.32,2.81,11.21,7.91c0.74,1.98,1.11,4.22,1.07,6.33c-0.1,6.13-0.5,12.25-0.77,18.28
		c-7.04,1.42-8.96-0.25-8.47-6.91c0.33-4.48,0.73-8.95,0.91-13.43c0.07-1.71-0.39-3.45-0.61-5.18
		C240.32,524.9,239.8,524.78,239.29,524.67z"/>
	<path class="st0" d="M183.28,540.57c0.85,8.38,4.57,10.44,12,5.63c5.53-3.58,10.62-7.84,15.95-11.74c0.98-0.72,2.18-1.14,3.28-1.69
		c0.35,0.31,0.69,0.61,1.04,0.92c-1.7,2.48-3.37,4.98-5.09,7.44c-1.82,2.6-3.56,5.26-5.54,7.72c-5.28,6.57-17.45,10.95-24.39,0.22
		c-7.98-12.33-1.48-29.29,12.9-33.04c4.84-1.26,11.23,1.63,12.74,6.37c0.55,1.75,0.02,4.94-1.25,5.97
		c-4.85,3.94-10.1,7.42-15.41,10.72C187.81,540.15,185.44,540.1,183.28,540.57z M198.46,523.89c-0.42-0.6-0.85-1.2-1.27-1.8
		c-3.49,2.6-6.98,5.19-10.47,7.79c0.37,0.51,0.74,1.02,1.11,1.53C191.38,528.9,194.92,526.39,198.46,523.89z"/>
	<path class="st0" d="M478.61,534.64c-0.48,1.56-0.63,3.35-1.5,4.65c-2.23,3.33-4.69,6.53-7.24,9.62
		c-6.06,7.36-18.62,10.76-25.07-1.2c-6.64-12.31,0.01-28.14,13.69-31.71c4.94-1.29,11.57,2.02,12.9,6.88
		c0.43,1.56-0.01,4.32-1.11,5.18c-5.19,4.04-10.65,7.76-16.22,11.25c-1.52,0.95-3.78,0.73-5.75,1.06
		c0.96,8.75,4.51,10.62,12.38,5.64c4.32-2.73,8.18-6.19,12.3-9.24c1.38-1.03,2.94-1.82,4.41-2.73
		C477.81,534.25,478.21,534.45,478.61,534.64z M451.68,529.67c0.4,0.59,0.8,1.18,1.2,1.76c3.56-2.56,7.12-5.13,10.68-7.69
		c-0.37-0.53-0.73-1.05-1.1-1.58C458.88,524.67,455.28,527.17,451.68,529.67z"/>
	<path class="st0" d="M155.62,545.1c-7.44-0.98-11.62-4.51-12.98-10.93c-0.3-1.38-0.68-3.4,0.03-4.24
		c3.89-4.61,7.65-9.55,12.36-13.2c4.31-3.35,7.32-1.05,8.78,5.73c-6.9,2.34-13.08,5.58-16.31,14c3.72,0.79,7.22,1.3,10.56,2.33
		c2.58,0.79,5.5,1.68,7.32,3.49c3.64,3.61,2.85,6.23-1.75,8.48c-8.56,4.19-17.17,8.28-25.63,12.64c-4.51,2.33-4.49-2.58-6.96-3.41
		c-0.12-0.46-0.24-0.93-0.37-1.39C138.64,554.29,146.62,549.97,155.62,545.1z"/>
	<path class="st0" d="M286.61,502.63c2.99-6.44,5.35-11.99,8.22-17.26c0.52-0.95,3.21-1.14,4.77-0.88c0.62,0.11,1.49,2.54,1.2,3.64
		c-1.47,5.59-3.12,11.14-5.11,16.56c-0.33,0.89-2.83,1.71-4,1.38C289.99,505.6,288.6,504.05,286.61,502.63z"/>
</g>
</svg>
